<svg width="16" height="20" viewBox="0 0 16 20" fill="none" xmlns="http://www.w3.org/2000/svg">
<path d="M15.5077 11.8168C15.5077 10.1352 14.9555 8.55636 13.9108 7.25052L8.18352 0L2.45624 7.25061C1.41162 8.55636 0.859375 10.1353 0.859375 11.8169C0.859375 15.8554 4.14499 19.141 8.18352 19.141C12.2221 19.141 15.5077 15.8553 15.5077 11.8168ZM3.78903 11.8168C3.78903 10.8063 4.11999 9.85928 4.74615 9.07784L8.18352 4.72632L11.6209 9.07784C12.2471 9.85918 12.578 10.8062 12.578 11.8168C12.578 14.2399 10.6066 16.2113 8.18352 16.2113C5.7604 16.2113 3.78903 14.2399 3.78903 11.8168Z" fill="white"/>
</svg>
