<svg width="33" height="42" viewBox="0 0 33 42" fill="none" xmlns="http://www.w3.org/2000/svg">
<path d="M4.0214 15.725C1.74574 18.5672 0.492432 22.1761 0.492432 25.8869C0.492432 34.7716 7.72078 42 16.6056 42C25.4903 42 32.7187 34.7716 32.7187 25.8869C32.7187 22.176 31.4654 18.5671 29.1897 15.725L16.6057 0.00830078L4.0214 15.725ZM29.7891 25.8869C29.7891 33.1562 23.875 39.0703 16.6057 39.0703C9.33629 39.0703 3.42219 33.1562 3.42219 25.8869C3.42219 22.8391 4.44718 19.8806 6.30839 17.5562L16.6057 4.69566L26.9029 17.5563C28.764 19.8806 29.7891 22.8391 29.7891 25.8869Z" fill="white"/>
</svg>
